<svg width="31" height="29" viewBox="0 0 31 29" fill="none" xmlns="http://www.w3.org/2000/svg">
<path d="M5.18863 21.1587C5.38973 21.361 5.54383 21.6054 5.63995 21.8743C5.73606 22.1432 5.77183 22.43 5.74469 22.7144C5.60819 24.0304 5.35003 25.3308 4.97356 26.5989C7.67637 25.9715 9.32713 25.2451 10.0769 24.8644C10.5022 24.6485 10.992 24.5973 11.4526 24.7207C12.7726 25.0749 14.1335 25.2525 15.5 25.249C23.2423 25.249 29.0625 19.7972 29.0625 13.5956C29.0625 7.39407 23.2423 1.94223 15.5 1.94223C7.75775 1.94223 1.9375 7.39601 1.9375 13.5956C1.9375 16.4468 3.13294 19.0921 5.18863 21.1587ZM4.23344 28.7431C3.77436 28.8342 3.31382 28.9177 2.852 28.9936C2.4645 29.0558 2.17 28.6518 2.32306 28.2905C2.49464 27.8836 2.65231 27.471 2.79581 27.0533L2.80163 27.0339C3.28212 25.6355 3.6735 24.0273 3.81688 22.5299C1.43956 20.1409 0 17.0139 0 13.5956C0 6.08695 6.94012 0 15.5 0C24.0599 0 31 6.08695 31 13.5956C31 21.1043 24.0599 27.1912 15.5 27.1912C13.9647 27.1947 12.4358 26.9948 10.9527 26.5969C9.94519 27.1077 7.77712 28.038 4.23344 28.7431Z" fill="#545864"/>
</svg>