<svg width="30" height="6" viewBox="0 0 30 6" fill="none" xmlns="http://www.w3.org/2000/svg">
    <path d="M1 3C1 3.53043 1.18437 4.03914 1.51256 4.41421C1.84075 4.78929 2.28587 5 2.75 5C3.21413 5 3.65925 4.78929 3.98744 4.41421C4.31563 4.03914 4.5 3.53043 4.5 3C4.5 2.46957 4.31563 1.96086 3.98744 1.58579C3.65925 1.21071 3.21413 1 2.75 1C2.28587 1 1.84075 1.21071 1.51256 1.58579C1.18437 1.96086 1 2.46957 1 3ZM13.25 3C13.25 3.53043 13.4344 4.03914 13.7626 4.41421C14.0908 4.78929 14.5359 5 15 5C15.4641 5 15.9092 4.78929 16.2374 4.41421C16.5656 4.03914 16.75 3.53043 16.75 3C16.75 2.46957 16.5656 1.96086 16.2374 1.58579C15.9092 1.21071 15.4641 1 15 1C14.5359 1 14.0908 1.21071 13.7626 1.58579C13.4344 1.96086 13.25 2.46957 13.25 3ZM25.5 3C25.5 3.53043 25.6844 4.03914 26.0126 4.41421C26.3407 4.78929 26.7859 5 27.25 5C27.7141 5 28.1592 4.78929 28.4874 4.41421C28.8156 4.03914 29 3.53043 29 3C29 2.46957 28.8156 1.96086 28.4874 1.58579C28.1592 1.21071 27.7141 1 27.25 1C26.7859 1 26.3407 1.21071 26.0126 1.58579C25.6844 1.96086 25.5 2.46957 25.5 3Z" fill="#545864" stroke="#545864" stroke-width="2" stroke-linecap="round" stroke-linejoin="round"/>
    </svg>